<svg xmlns="http://www.w3.org/2000/svg" width="68" height="38" viewBox="0 0 68 38" fill="none">
<path d="M60.0692 37.3978C59.5442 37.3028 59.0093 37.2448 58.4962 37.1071C55.4958 36.3007 53.6103 34.3846 52.8049 31.4624C51.8238 27.9015 53.5626 24.0016 56.8201 22.3426C58.4449 21.5149 60.1661 21.3309 61.9516 21.5911C63.905 21.8762 65.5309 22.7669 66.852 24.2008C66.881 24.2323 66.9074 24.2654 66.9479 24.3121C66.1124 24.9386 65.2805 25.5621 64.4819 26.1612C64.0849 25.8375 63.7309 25.4813 63.3147 25.2206C60.3905 23.3904 56.7703 24.866 56.0312 28.1688C55.6047 30.0732 56.0592 31.7815 57.5021 33.1763C59.2094 34.8272 62.2999 34.7484 63.8402 33.0274C64.2372 32.5838 64.4642 32.062 64.5788 31.44H60.7901V28.6286H67.8637C67.9098 28.8949 67.9549 29.1581 68 29.4208V30.9451C67.9637 31.1606 67.9233 31.3755 67.8917 31.592C67.6439 33.2723 66.9551 34.7083 65.5267 35.7449C64.5829 36.4298 63.5287 36.8714 62.3942 37.1361C61.935 37.2433 61.467 37.3124 61.0031 37.3988H60.0702L60.0692 37.3978Z" fill="white"/>
<path d="M43.1213 37.3978C42.7844 37.3307 42.4475 37.2627 42.1107 37.1961C38.9175 36.565 36.4557 34.0808 35.9218 30.9228C35.4683 28.2394 36.11 25.8401 37.997 23.8243C39.2306 22.5068 40.7968 21.7659 42.6134 21.5424C44.9882 21.2502 47.1251 21.7913 48.9572 23.3238C50.3872 24.52 51.2641 26.0509 51.5968 27.8619C52.0379 30.2638 51.572 32.4761 50.0207 34.4172C48.7271 36.0355 47.0074 36.9608 44.9457 37.2911C44.7679 37.3196 44.5927 37.3623 44.4165 37.3988H43.1208L43.1213 37.3978ZM48.5379 29.3634C48.5146 29.086 48.5006 28.8075 48.4669 28.5311C48.2031 26.397 46.5607 24.5393 44.2455 24.3701C42.2864 24.2268 40.7688 24.9402 39.7618 26.5956C39.1191 27.652 38.9465 28.8233 39.0689 30.0438C39.1849 31.2028 39.6084 32.2282 40.434 33.0686C41.4493 34.1021 42.7082 34.5137 44.16 34.4151C45.2359 34.342 46.1683 33.9573 46.9478 33.2312C48.0751 32.1809 48.5187 30.8583 48.5384 29.3634H48.5379Z" fill="white"/>
<path d="M0 17.0221C0.759287 16.5084 1.51857 15.9941 2.27786 15.4804C2.35405 15.4286 2.43179 15.3793 2.52042 15.3219C2.98791 16.4769 3.90735 17.0277 5.09318 17.2004C5.69388 17.2883 6.29872 17.2746 6.87557 17.0363C7.57525 16.7472 7.91887 16.2284 7.88674 15.487C7.86497 14.9814 7.58354 14.5988 7.15181 14.3935C6.57496 14.1192 5.96546 13.8956 5.3487 13.7218C4.40387 13.4556 3.44867 13.2355 2.59039 12.735C1.58802 12.1497 0.865017 11.3565 0.630753 10.2107C0.23582 8.27525 1.16407 6.46684 3.07291 5.76208C5.29117 4.94349 7.44672 5.14267 9.39339 6.57964C9.71577 6.81745 9.99979 7.10504 10.3216 7.38705C9.52037 8.06184 8.79581 8.6726 8.07332 9.28133C7.89244 9.07808 7.73385 8.87636 7.55193 8.69801C6.75429 7.91702 5.7768 7.7153 4.71121 7.93836C3.85034 8.11875 3.37041 8.8789 3.57306 9.64667C3.70625 10.1512 4.08408 10.4505 4.55002 10.6238C5.12117 10.8367 5.71202 10.9968 6.2925 11.1853C7.01136 11.4185 7.75458 11.6014 8.44027 11.9068C9.70074 12.4683 10.5813 13.3849 10.815 14.7767C11.1582 16.8188 10.1864 18.5327 8.24902 19.3457C7.12227 19.8183 5.94317 19.8843 4.74386 19.7771C3.91253 19.7029 3.11748 19.49 2.36338 19.1353C1.45379 18.7075 0.729227 18.0729 0.16326 17.2583C0.116614 17.1908 0.0544199 17.1339 0 17.0719C0 17.0551 0 17.0378 0 17.0211L0 17.0221Z" fill="white"/>
<path d="M67.999 19.5627H58.6911V5.55939H61.5209C61.5209 5.67676 61.5209 5.7916 61.5209 5.90643C61.5209 9.45414 61.5199 13.0019 61.5199 16.5501C61.5199 16.7679 61.6329 16.877 61.8589 16.8773C63.9056 16.8748 65.9523 16.8722 67.999 16.8697V19.5627Z" fill="white"/>
<path d="M47.7858 0C47.86 0.0533528 47.9279 0.118393 48.0087 0.159042C49.6802 1.00049 51.3516 1.84194 53.0283 2.67374C53.1838 2.75097 53.232 2.83431 53.2299 2.99894C53.2211 3.81041 53.2258 4.62239 53.2258 5.47197C53.0863 5.40591 52.9718 5.35408 52.8599 5.29768C51.2345 4.47961 49.6081 3.66305 47.9859 2.83837C47.8283 2.75809 47.7112 2.76673 47.5594 2.84396C45.8843 3.6971 44.2061 4.54414 42.5284 5.39219C42.4682 5.42268 42.4061 5.4491 42.319 5.48874C42.3097 5.40998 42.2962 5.3485 42.2962 5.28752C42.2946 4.52585 42.2998 3.76417 42.292 3.00249C42.2905 2.84701 42.3376 2.76419 42.4833 2.69203C44.1739 1.85058 45.8615 1.00202 47.548 0.151929C47.6179 0.116868 47.6723 0.0513204 47.734 0C47.7511 0 47.7687 0 47.7858 0Z" fill="white"/>
<path d="M57.1082 19.5541H54.5806C54.5806 19.4341 54.5806 19.3274 54.5806 19.2207C54.5806 16.393 54.5754 13.5648 54.5894 10.7371C54.5909 10.4312 54.4982 10.2768 54.2209 10.1386C52.2058 9.13806 50.1948 8.12842 48.1958 7.09795C47.8771 6.93331 47.6459 6.92722 47.3272 7.09134C45.266 8.1523 43.1939 9.19243 41.1207 10.231C40.946 10.3184 40.8978 10.4236 40.8984 10.6055C40.9035 13.484 40.9015 16.363 40.9015 19.2416C40.9015 19.3406 40.9015 19.4392 40.9015 19.5535H38.3588C38.3515 19.4438 38.338 19.3386 38.338 19.2329C38.3375 15.8717 38.3396 12.5105 38.3344 9.14924C38.3344 8.9531 38.3956 8.85198 38.5759 8.76154C41.5628 7.26563 44.545 5.76006 47.5324 4.26516C47.6444 4.20927 47.8299 4.1859 47.9336 4.23823C50.9173 5.73974 53.8944 7.25496 56.876 8.76103C57.0538 8.85097 57.1145 8.95005 57.1139 9.1472C57.1067 12.5252 57.1082 15.9037 57.1077 19.2817C57.1077 19.3645 57.1077 19.4479 57.1077 19.5541H57.1082Z" fill="white"/>
<path d="M25.5276 5.55426H28.3517C28.3517 5.67214 28.3517 5.77885 28.3517 5.88556C28.3517 7.55321 28.3548 9.22138 28.3465 10.889C28.3455 11.1141 28.3989 11.1934 28.6461 11.1919C30.2694 11.1802 31.8932 11.1807 33.5164 11.1904C33.746 11.1919 33.8067 11.1294 33.8051 10.9058C33.7958 9.22951 33.8004 7.55321 33.8004 5.87692C33.8004 5.77682 33.8004 5.67672 33.8004 5.56036H36.622V19.5434H33.8103V13.7792C33.6968 13.7726 33.6139 13.7635 33.5309 13.7635C31.8989 13.7625 30.2668 13.767 28.6347 13.7579C28.4072 13.7564 28.3434 13.8163 28.3445 14.0414C28.3543 15.7599 28.3496 17.4789 28.3496 19.1973C28.3496 19.3061 28.3496 19.4153 28.3496 19.5439H25.5276V5.55426Z" fill="white"/>
<path d="M22.2391 15.2894C22.9637 15.8519 23.6789 16.4078 24.4029 16.9697C23.0912 18.5749 21.4674 19.5779 19.3626 19.7695C17.532 19.9362 15.831 19.584 14.3337 18.5256C12.5814 17.2873 11.5966 15.5805 11.3536 13.4764C11.1209 11.4612 11.6127 9.62738 12.882 8.01866C14.073 6.50903 15.6408 5.61474 17.5813 5.38507C19.7171 5.13202 21.641 5.63201 23.2995 7.00242C23.6022 7.25241 23.8681 7.54509 24.1479 7.82151C24.207 7.87995 24.2532 7.95108 24.32 8.03492C23.5975 8.62892 22.8854 9.21427 22.2697 9.71986C21.9421 9.45411 21.6312 9.20208 21.3197 8.95005C18.8822 6.97955 15.1894 8.18075 14.4628 11.1949C14.0932 12.7269 14.2425 14.1949 15.2407 15.4916C16.8344 17.5622 19.9037 17.7258 21.7327 15.8493C21.8996 15.6781 22.0541 15.4957 22.2407 15.2894H22.2391Z" fill="white"/>
<path d="M25.4655 21.769H28.5959V33.9248H35.4398V36.7601H25.4655V21.769Z" fill="white"/>
<path d="M53.2139 19.5516H50.6997C50.6997 19.4382 50.6997 19.3397 50.6997 19.2406C50.6992 17.0897 50.6955 14.9393 50.7033 12.7884C50.7038 12.5821 50.639 12.4729 50.4519 12.3794C49.6683 11.9882 48.8872 11.5908 48.1181 11.1731C47.8641 11.0354 47.6631 11.0283 47.4065 11.164C46.5798 11.6015 45.7433 12.0217 44.9027 12.4338C44.7166 12.5247 44.7259 12.6594 44.7259 12.8113C44.7275 14.9449 44.7296 17.079 44.7311 19.2126C44.7311 19.3204 44.7311 19.4281 44.7311 19.5516H42.2475V19.2426C42.2475 16.5922 42.2501 13.9424 42.2423 11.292C42.2418 11.101 42.3092 11.0146 42.475 10.9318C44.174 10.0857 45.8693 9.23311 47.562 8.3754C47.7175 8.29664 47.8341 8.29715 47.9906 8.37743C49.6642 9.23514 51.3418 10.0857 53.0211 10.9333C53.1564 11.0014 53.2243 11.0695 53.2243 11.2346C53.2196 13.9358 53.2232 16.6365 53.2243 19.3376C53.2243 19.4037 53.2175 19.4697 53.2134 19.5521L53.2139 19.5516Z" fill="white"/>
<path d="M46.302 19.5414V16.4814H49.1085V19.5414H46.302Z" fill="white"/>
</svg>